<?xml version="1.0" standalone="no"?>
<!DOCTYPE svg PUBLIC "-//W3C//DTD SVG 20010904//EN"
 "http://www.w3.org/TR/2001/REC-SVG-20010904/DTD/svg10.dtd">
<svg version="1.0" xmlns="http://www.w3.org/2000/svg"
 width="225.000000pt" height="225.000000pt" viewBox="0 0 225.000000 225.000000"
 preserveAspectRatio="xMidYMid meet">

<g transform="translate(0.000000,225.000000) scale(0.100000,-0.100000)"
fill="#000000" stroke="none">
<path d="M935 1954 c-252 -56 -459 -222 -569 -455 -59 -123 -71 -185 -71 -354
0 -129 3 -160 23 -225 40 -128 127 -283 144 -258 8 10 9 9 5 -3 -3 -9 -2 -20
3 -25 5 -5 10 -46 12 -92 2 -69 5 -82 19 -82 10 0 20 6 22 13 4 8 6 6 6 -4 1
-9 10 -24 21 -34 16 -14 24 -15 49 -7 44 15 121 -5 121 -31 0 -38 141 -95 205
-83 34 7 35 9 19 20 -15 11 -8 12 42 4 81 -14 244 -3 334 22 41 12 119 43 173
70 53 27 97 49 98 47 0 -1 2 -13 5 -27 3 -20 2 -22 -7 -10 -9 12 -10 11 -6 -7
3 -12 0 -24 -7 -27 -6 -2 3 -5 19 -5 23 -1 26 2 15 9 -12 8 -11 10 6 10 12 0
36 11 55 25 87 63 84 62 150 52 71 -10 149 -2 149 16 0 28 -57 47 -137 47 -44
0 -83 3 -86 7 -4 3 0 17 8 30 8 13 22 34 31 48 16 24 16 25 -2 18 -16 -6 -16
-4 3 28 98 163 142 307 143 466 0 32 5 53 13 56 9 3 8 9 -5 23 -9 10 -18 38
-20 61 -3 24 -7 46 -11 50 -4 3 -7 16 -7 28 0 12 -25 71 -55 130 -51 100 -53
109 -37 122 16 12 16 14 -3 29 -12 9 -31 13 -47 10 -16 -3 -28 -1 -28 4 0 28
-96 -39 -175 -121 -110 -114 -299 -299 -305 -299 -20 0 -19 -35 2 -57 26 -28
65 -52 53 -33 -4 6 3 20 16 31 12 10 20 19 17 19 -11 0 327 326 357 346 17 10
33 23 38 29 21 27 115 -169 137 -286 17 -89 12 -257 -10 -342 -29 -116 -110
-267 -142 -267 -5 0 -6 6 -3 13 7 13 -46 -42 -103 -106 -18 -20 -41 -37 -52
-37 -11 0 -20 -5 -20 -11 0 -5 -4 -8 -8 -5 -4 2 -8 -4 -9 -14 -1 -14 3 -17 15
-13 9 3 -5 -11 -31 -30 -101 -74 -312 -126 -447 -112 -36 4 -60 9 -55 11 6 2
28 8 50 13 26 7 58 28 88 56 30 29 52 43 59 39 10 -6 10 -4 0 8 -11 14 -10 18
9 29 l23 12 -24 10 c-14 5 -89 10 -168 11 -125 1 -145 -1 -156 -16 -28 -38
-191 8 -253 72 -32 33 -72 97 -53 85 8 -5 11 -3 8 6 -3 8 -11 13 -17 12 -6 -2
-11 -2 -11 0 0 1 -11 34 -24 72 -31 97 -48 92 -53 -15 -3 -47 -6 -86 -7 -87
-5 -5 -91 172 -92 189 -1 10 -7 25 -14 34 -11 12 -11 17 -1 23 9 6 8 11 -3 20
-43 36 -46 284 -6 416 42 135 95 221 200 325 72 71 115 105 175 137 245 128
529 122 764 -16 52 -31 97 -35 88 -8 -7 21 -180 106 -262 128 -106 29 -291 35
-390 13z"/>
<path d="M1088 1873 c6 -2 18 -2 25 0 6 3 1 5 -13 5 -14 0 -19 -2 -12 -5z"/>
<path d="M1238 1868 c6 -6 18 -8 28 -6 14 3 12 5 -9 10 -19 3 -25 2 -19 -4z"/>
<path d="M1018 1863 c7 -3 16 -2 19 1 4 3 -2 6 -13 5 -11 0 -14 -3 -6 -6z"/>
<path d="M1304 1862 c10 -17 62 -31 77 -21 8 5 10 9 4 10 -17 1 -42 7 -65 14
-14 5 -20 3 -16 -3z"/>
<path d="M880 1819 c0 -5 5 -7 10 -4 6 3 10 8 10 11 0 2 -4 4 -10 4 -5 0 -10
-5 -10 -11z"/>
<path d="M1430 1819 c0 -14 18 -20 23 -7 3 10 7 10 20 -1 9 -7 15 -17 12 -21
-5 -8 55 -23 63 -15 3 3 -2 5 -11 5 -9 0 -17 4 -17 8 0 11 -48 35 -72 38 -10
1 -18 -2 -18 -7z"/>
<path d="M795 1794 c-22 -8 -48 -18 -57 -21 -27 -8 -22 -23 7 -23 15 0 25 6
25 15 0 9 6 12 17 8 11 -4 14 -3 9 5 -5 8 1 12 18 12 14 0 26 5 26 10 0 12 4
13 -45 -6z"/>
<path d="M696 1743 c-4 -9 -3 -20 2 -25 4 -4 9 4 10 17 2 29 -3 32 -12 8z"/>
<path d="M1538 1753 c12 -2 32 -2 45 0 12 2 2 4 -23 4 -25 0 -35 -2 -22 -4z"/>
<path d="M657 1719 c-9 -5 -23 -7 -30 -4 -6 4 -3 -1 8 -10 12 -9 21 -11 23 -5
2 5 8 8 13 4 5 -3 9 2 9 10 0 19 0 18 -23 5z"/>
<path d="M735 1689 c-22 -5 -61 -11 -87 -12 -26 -1 -50 -6 -54 -10 -4 -4 6 -6
22 -3 16 2 21 1 11 -1 -9 -2 -15 -9 -12 -14 3 -5 -2 -6 -11 -2 -11 4 -15 3
-10 -5 4 -6 -3 -16 -16 -23 -20 -11 -22 -11 -10 3 10 13 10 18 1 24 -7 4 -9 3
-6 -3 4 -6 0 -16 -8 -23 -8 -7 -12 -17 -8 -23 3 -5 1 -7 -4 -4 -14 9 -37 -19
-27 -34 5 -8 3 -9 -6 -4 -10 6 -12 4 -7 -9 5 -11 3 -15 -5 -10 -7 5 -9 2 -5
-9 4 -10 2 -14 -7 -11 -18 7 -41 -46 -25 -60 9 -8 10 -8 5 1 -3 6 -3 14 1 16
5 3 8 -32 8 -76 1 -69 5 -91 28 -137 43 -86 61 -115 72 -117 6 -2 10 -8 10
-14 0 -14 92 -97 116 -104 11 -4 19 -10 19 -15 0 -5 8 -7 18 -3 9 3 14 3 10
-2 -8 -8 15 -35 31 -35 6 0 30 -13 53 -29 25 -17 45 -25 49 -19 4 5 44 -19 93
-57 l86 -66 0 -66 c0 -58 3 -67 29 -94 22 -22 40 -29 70 -30 63 -2 66 -3 63
-22 -2 -11 4 -17 18 -17 11 0 20 5 20 11 0 5 4 8 8 5 17 -10 35 70 34 156 -1
85 0 88 21 88 15 0 50 -27 99 -75 41 -41 74 -75 73 -77 -2 -2 3 -9 11 -16 11
-10 14 -10 14 0 0 25 -37 66 -245 271 -182 179 -211 204 -219 187 -8 -18 -10
-18 -49 7 -22 14 -68 38 -102 53 -84 38 -189 105 -218 140 -21 24 -23 34 -17
74 5 31 17 57 36 77 35 37 106 72 145 72 28 0 29 2 29 48 0 60 -7 79 -30 79
-10 0 -20 7 -24 15 -6 16 -30 17 -91 4z"/>
<path d="M1137 1679 c-5 -17 -9 -19 -25 -10 -15 8 -23 6 -38 -10 -16 -18 -18
-42 -19 -245 -1 -123 2 -224 6 -224 4 0 17 14 29 30 12 17 17 30 11 30 -7 0
-7 8 -1 26 6 14 10 36 10 49 0 13 5 27 12 31 7 4 8 3 4 -4 -4 -7 -2 -12 3 -12
6 0 11 -11 11 -25 0 -33 23 -32 61 3 l30 28 2 152 c2 150 2 153 -20 158 -12 3
-25 15 -28 25 -8 25 -41 24 -48 -2z"/>
<path d="M432 1430 c0 -19 2 -27 5 -17 2 9 2 25 0 35 -3 9 -5 1 -5 -18z"/>
<path d="M407 1401 c-4 -17 -3 -21 5 -13 5 5 8 16 6 23 -3 8 -7 3 -11 -10z"/>
<path d="M387 1351 c-5 -22 1 -33 14 -25 12 7 12 44 0 44 -5 0 -11 -9 -14 -19z"/>
<path d="M370 1306 c0 -9 5 -16 10 -16 6 0 10 4 10 9 0 6 -4 13 -10 16 -5 3
-10 -1 -10 -9z"/>
<path d="M371 1263 c0 -12 -4 -30 -7 -40 -5 -17 -5 -17 6 0 6 10 9 28 7 40 -4
22 -4 22 -6 0z"/>
<path d="M350 1153 c0 -13 5 -23 10 -23 13 0 13 11 0 30 -8 12 -10 11 -10 -7z"/>
<path d="M1941 1144 c0 -11 3 -14 6 -6 3 7 2 16 -1 19 -3 4 -6 -2 -5 -13z"/>
<path d="M351 1070 c0 -19 4 -42 9 -50 8 -12 10 -11 9 5 -1 11 -5 34 -9 50
l-8 30 -1 -35z"/>
<path d="M1942 990 c0 -14 2 -19 5 -12 2 6 2 18 0 25 -3 6 -5 1 -5 -13z"/>
<path d="M1900 840 c0 -8 5 -22 10 -30 9 -13 10 -13 10 0 0 8 -5 22 -10 30 -9
13 -10 13 -10 0z"/>
<path d="M1891 805 c1 -19 18 -51 18 -35 0 8 -4 22 -9 30 -5 8 -9 11 -9 5z"/>
<path d="M1871 752 c-13 -25 -14 -42 -2 -42 8 0 23 52 16 58 -2 2 -8 -5 -14
-16z"/>
<path d="M1820 680 c-13 -9 -13 -11 0 -20 19 -13 30 -13 30 0 0 6 -5 10 -11
10 -5 0 -7 5 -4 10 8 12 4 12 -15 0z"/>
<path d="M1520 371 c0 -5 9 -7 20 -4 11 3 20 7 20 9 0 2 -9 4 -20 4 -11 0 -20
-4 -20 -9z"/>
<path d="M1480 339 c0 -5 5 -7 10 -4 6 3 10 8 10 11 0 2 -4 4 -10 4 -5 0 -10
-5 -10 -11z"/>
<path d="M1410 334 c0 -1 6 -7 14 -13 10 -9 15 -8 19 2 3 8 -3 13 -14 13 -11
0 -19 -1 -19 -2z"/>
<path d="M960 299 c0 -5 5 -7 10 -4 6 3 10 8 10 11 0 2 -4 4 -10 4 -5 0 -10
-5 -10 -11z"/>
<path d="M1208 273 c6 -2 18 -2 25 0 6 3 1 5 -13 5 -14 0 -19 -2 -12 -5z"/>
</g>
</svg>
